<?xml version="1.0" encoding="utf-8"?><svg xmlns="http://www.w3.org/2000/svg" xmlns:xlink="http://www.w3.org/1999/xlink"><symbol fill="none" viewBox="0 0 13 9" id="burger" xmlns="http://www.w3.org/2000/svg"><path stroke="currentColor" d="M13 .5H0m13 4H0m13 4H0"/></symbol><symbol fill="none" viewBox="0 0 12 12" id="burger-close" xmlns="http://www.w3.org/2000/svg"><path d="M.864.157 11.47 10.764l-.707.707L.157.864.864.157Z" fill="currentColor"/><path d="M0 10.607 10.607 0l.707.707L.707 11.314 0 10.607Z" fill="currentColor"/></symbol><symbol fill="none" viewBox="0 0 12 9" id="c-check" xmlns="http://www.w3.org/2000/svg"><path d="m1 3.5 3.5 4L11 1" stroke="currentColor" stroke-width="2" stroke-linecap="round" stroke-linejoin="round"/></symbol><symbol fill="none" viewBox="0 0 20 20" id="dropdown-arrow" xmlns="http://www.w3.org/2000/svg"><path d="m13.84 9.782-3.303 3.003a.873.873 0 0 1-.247.16A.721.721 0 0 1 10 13a.763.763 0 0 1-.537-.216L6.16 9.78a.606.606 0 0 1-.114-.145A.356.356 0 0 1 6 9.46c0-.126.045-.234.136-.324A.494.494 0 0 1 6.497 9h7.005c.15 0 .27.046.361.14.091.092.137.2.137.322 0 .032-.053.138-.16.319" fill="currentColor"/></symbol><symbol fill="none" viewBox="0 0 16 16" id="faq-arrow" xmlns="http://www.w3.org/2000/svg"><path d="m3.56 5.527 4.667 4.667 4.667-4.667" stroke="currentColor" stroke-width="1.5" stroke-linecap="round" stroke-linejoin="round"/></symbol><symbol fill="none" viewBox="0 0 20 20" id="index-news__card-title-arrow" xmlns="http://www.w3.org/2000/svg"><path d="m6.909 4.45 5.833 5.833-5.833 5.834" stroke="currentColor" stroke-width="1.5" stroke-linecap="round" stroke-linejoin="round"/></symbol></svg>