<svg width="138" height="40" viewBox="0 0 138 40" fill="none" xmlns="http://www.w3.org/2000/svg">
<g clip-path="url(#clip0_1_217)">
<path d="M68.4022 9.90782V13.7699C67.8378 13.7216 67.3701 13.5285 67.0153 13.1584C66.6444 12.8044 66.467 12.3699 66.467 11.8389C66.467 11.3078 66.6444 10.8733 67.0153 10.5032C67.3701 10.1492 67.8378 9.95609 68.4022 9.90782ZM72.1114 5.56299H68.4022V6.68942C67.5475 6.7377 66.7895 6.89862 66.0961 7.17218C65.4026 7.46184 64.8059 7.83195 64.306 8.29862C63.8061 8.76529 63.4351 9.29632 63.161 9.89172C62.8868 10.5032 62.7578 11.1469 62.7578 11.8389C62.7578 12.5308 62.8868 13.1745 63.161 13.7699C63.4351 14.3814 63.8061 14.9124 64.306 15.3791C64.8059 15.8457 65.4026 16.2159 66.0961 16.4894C66.7895 16.7791 67.5475 16.94 68.4022 16.9883V18.1147H72.1114V16.9883C72.9661 16.94 73.7402 16.7791 74.4337 16.4894C75.1271 16.2159 75.7077 15.8457 76.2076 15.3791C76.7076 14.9124 77.0785 14.3814 77.3526 13.7699C77.6268 13.1745 77.7558 12.5308 77.7558 11.8389C77.7558 11.1469 77.6268 10.5032 77.3526 9.89172C77.0785 9.29632 76.7076 8.76529 76.2076 8.29862C75.7077 7.83195 75.1271 7.46184 74.4337 7.17218C73.7402 6.89862 72.9661 6.7377 72.1114 6.68942V5.56299ZM72.1114 13.7699V9.90782C72.6758 9.95609 73.1435 10.1492 73.5144 10.5032C73.8692 10.8733 74.0466 11.3078 74.0466 11.8389C74.0466 12.3699 73.8692 12.8044 73.5144 13.1584C73.1435 13.5285 72.6758 13.7216 72.1114 13.7699ZM86.1535 12.1607H86.2987V17.471H90.0079V6.20667H86.1374L83.0733 11.517H82.912V6.20667H79.2029V17.471H83.0733L86.1535 12.1607ZM91.9355 6.20667V17.471H95.6447V13.609H98.87V17.471H102.579V6.20667H98.87V10.2297H95.6447V6.20667H91.9355ZM104.027 9.58598H107.252V17.471H110.962V9.58598H114.187V6.20667H104.027V9.58598ZM125.313 14.2526H119.346V13.2871H124.023V10.3906H119.346V9.42506H125.313V6.20667H115.637V17.471H125.313V14.2526ZM130.311 6.20667H126.28L129.182 11.6779L125.796 17.471H129.989L131.763 14.2526H131.924L133.698 17.471H137.891L134.504 11.6779L137.407 6.20667H133.375L131.924 9.26414H131.763L130.311 6.20667Z" fill="white"/>
<path d="M69.1262 27.2874L70.9808 35.1724H74.69L71.9484 23.9081H65.1752L62.4336 35.1724H66.1428L67.9974 27.2874H69.1262ZM82.7659 29.8621H82.911V35.1724H86.6202V23.9081H82.7498L79.6857 29.2184H79.5244V23.9081H75.8152V35.1724H79.6857L82.7659 29.8621ZM93.2246 35.6552C94.031 35.6552 94.7567 35.5425 95.4018 35.3333C96.0307 35.108 96.579 34.8184 97.0145 34.4483C97.4499 34.0943 97.7885 33.692 98.0304 33.2414C98.2724 32.7908 98.3852 32.3402 98.3852 31.8736C98.3852 31.2943 98.2724 30.8115 98.0304 30.4253C97.7885 30.0391 97.5305 29.7333 97.2564 29.5081C96.9177 29.2345 96.5468 29.0414 96.1275 28.8966V28.7356C96.4984 28.623 96.8209 28.4782 97.0951 28.3012C97.337 28.1563 97.5628 27.9471 97.7724 27.6897C97.9659 27.4322 98.0627 27.1103 98.0627 26.7241C98.0627 26.3379 97.9498 25.9517 97.7402 25.5494C97.5305 25.1632 97.208 24.8092 96.8048 24.4874C96.3855 24.1816 95.8694 23.9241 95.2728 23.7149C94.6761 23.5218 93.9826 23.4253 93.2246 23.4253C92.5312 23.4253 91.9184 23.5218 91.3539 23.731C90.7895 23.9402 90.3057 24.2138 89.8864 24.5678C89.451 24.9218 89.0962 25.3241 88.822 25.7908C88.5478 26.2575 88.3382 26.7563 88.2253 27.2874L91.9345 27.7701C92.0958 27.4483 92.2732 27.2069 92.4828 27.046C92.6763 26.8851 92.9827 26.8046 93.3859 26.8046C93.6278 26.8046 93.8375 26.869 93.9826 26.9977C94.1278 27.1264 94.1923 27.2552 94.1923 27.3678C94.1923 27.4805 94.1278 27.6092 93.9826 27.7379C93.8375 27.8667 93.6278 27.931 93.3859 27.931H92.0958V30.8276H93.3859C93.7568 30.8276 94.031 30.908 94.2245 31.069C94.418 31.2299 94.5148 31.3908 94.5148 31.5517C94.5148 31.7126 94.418 31.8736 94.2245 32.0345C94.031 32.1954 93.7568 32.2759 93.3859 32.2759C92.8215 32.2759 92.386 32.1632 92.1119 31.9379C91.8377 31.7126 91.612 31.3908 91.4507 30.9885L87.7415 31.4713C87.9028 32.0667 88.1447 32.6299 88.4511 33.1448C88.7575 33.6598 89.1284 34.0943 89.58 34.4644C90.0315 34.8345 90.5637 35.1241 91.1765 35.3494C91.7732 35.5586 92.4667 35.6552 93.2246 35.6552ZM106.782 29.8621H106.927V35.1724H110.637V23.9081H106.766L103.702 29.2184H103.541V23.9081H99.8316V35.1724H103.702L106.782 29.8621ZM112.564 23.9081V35.1724H116.273V31.3103H119.499V35.1724H123.208V23.9081H119.499V27.931H116.273V23.9081H112.564ZM128.849 27.2874H133.848V23.9081H125.14V35.1724H128.849V27.2874Z" fill="white"/>
<path d="M55.5384 14.1583C54.7422 11.6153 53.4366 9.25791 51.7004 7.22736C49.9066 5.12035 47.6913 3.40637 45.1944 2.19424C42.6977 0.982115 39.9741 0.298308 37.1968 0.186237C37.1611 0.1848 37.1243 0.184082 37.0895 0.184082C36.4108 0.18406 35.7592 0.447957 35.2745 0.919145C34.7898 1.39034 34.5105 2.03128 34.4967 2.70444C34.4827 3.37761 34.7354 4.02936 35.2003 4.51984C35.665 5.01035 36.3052 5.30048 36.9833 5.32805C39.0422 5.41423 41.0611 5.92264 42.9124 6.82129C44.7638 7.71991 46.4076 8.98926 47.7401 10.5494C53.0376 16.7678 52.249 26.1034 45.9821 31.3599C43.2981 33.6082 39.899 34.842 36.3866 34.8427C31.9858 34.8427 27.8389 32.9374 25.0093 29.6155C24.7902 29.3553 24.5213 29.1406 24.2181 28.9836C23.9152 28.8268 23.5837 28.7309 23.2432 28.7015C22.9027 28.6723 22.5597 28.71 22.2339 28.8128C21.9081 28.9153 21.606 29.0811 21.3449 29.2999C21.0839 29.519 20.869 29.7868 20.7127 30.0886C20.5564 30.3903 20.4618 30.7195 20.4342 31.0576C20.4067 31.3955 20.4467 31.7358 20.5521 32.0585C20.6575 32.3811 20.8262 32.6799 21.0484 32.9376C22.7476 34.9369 24.8282 36.5836 27.1705 37.7829C29.5128 38.9824 32.071 39.7107 34.6978 39.9266C35.2625 39.9744 35.8343 39.9983 36.3974 39.9983C39.5417 39.9932 42.6408 39.2555 45.445 37.8445C48.2495 36.4335 50.6807 34.3886 52.5429 31.8749C54.4051 29.3611 55.6467 26.4484 56.1669 23.3716C56.6873 20.2947 56.4721 17.1395 55.5388 14.1602L55.5384 14.1583Z" fill="white"/>
<path opacity="0.67" d="M5.30929 5.38899H28.3322C29.0524 5.38899 29.7431 5.1051 30.2525 4.59979C30.7616 4.09448 31.0477 3.40913 31.0477 2.69448C31.0477 1.97987 30.7616 1.29452 30.2525 0.789198C29.7431 0.283883 29.0524 0 28.3322 0H5.30929C4.58908 0 3.89837 0.283883 3.3891 0.789198C2.87984 1.29452 2.59375 1.97987 2.59375 2.69448C2.59375 3.40913 2.87984 4.09448 3.3891 4.59979C3.89837 5.1051 4.58908 5.38899 5.30929 5.38899Z" fill="white"/>
<path opacity="0.6" d="M14.8816 10.4995C14.1613 10.4995 13.4706 10.7834 12.9614 11.2887C12.4521 11.794 12.166 12.4794 12.166 13.194C12.166 13.9086 12.4521 14.594 12.9614 15.0993C13.4706 15.6046 14.1613 15.8885 14.8816 15.8885H29.5575C30.2777 15.8885 30.9684 15.6046 31.4778 15.0993C31.9869 14.594 32.2731 13.9086 32.2731 13.194C32.2731 12.4794 31.9869 11.794 31.4778 11.2887C30.9684 10.7834 30.2777 10.4995 29.5575 10.4995H14.8816Z" fill="white"/>
<path opacity="0.38" d="M6.77073 10.4995H2.71554C1.99533 10.4995 1.30463 10.7834 0.795362 11.2887C0.2861 11.794 0 12.4794 0 13.194C0 13.9086 0.2861 14.594 0.795362 15.0993C1.30463 15.6046 1.99533 15.8885 2.71554 15.8885H6.77073C7.49093 15.8885 8.18165 15.6046 8.69091 15.0993C9.20018 14.594 9.48627 13.9086 9.48627 13.194C9.48627 12.4794 9.20018 11.794 8.69091 11.2887C8.18165 10.7834 7.49093 10.4995 6.77073 10.4995Z" fill="white"/>
<path opacity="0.87" d="M30.5145 26.7451C31.9632 28.0228 33.7903 28.7994 35.7219 28.9582C35.9737 28.9791 36.2287 28.9897 36.4798 28.9897C38.8221 28.9805 41.0679 28.0628 42.7375 26.4327C44.4069 24.8024 45.3678 22.589 45.4146 20.2653C45.4611 17.9415 44.5903 15.6918 42.9877 13.9968C41.3849 12.3018 39.1779 11.2959 36.8378 11.1941C36.8037 11.1926 36.769 11.1919 36.7346 11.1919C36.0732 11.1921 35.438 11.4495 34.9657 11.9089C34.4932 12.3683 34.2209 12.9931 34.2073 13.6494C34.1937 14.3056 34.4398 14.941 34.8929 15.4193C35.3459 15.8976 35.9698 16.1808 36.6307 16.208C37.1724 16.2304 37.7034 16.364 38.1902 16.6001C38.6772 16.8363 39.1097 17.17 39.4603 17.5801C40.8537 19.2155 40.6463 21.6709 38.9979 23.0534C38.2923 23.6444 37.3988 23.9686 36.4755 23.9688C35.3528 23.9688 34.2852 23.4755 33.4692 22.5797L33.4528 22.5617C33.1298 22.207 32.6872 21.7212 31.936 21.3402C31.0826 20.9069 30.0153 20.6964 28.6728 20.6964H14.6445C13.1436 20.6964 11.9135 21.8958 11.9024 23.3702C11.8997 23.7258 11.9679 24.0784 12.1032 24.4076C12.2384 24.7368 12.438 25.0364 12.6904 25.2886C12.9428 25.541 13.243 25.7414 13.5738 25.878C13.9046 26.0148 14.2594 26.0851 14.6177 26.0851H28.7728C29.4153 26.0856 30.0353 26.3205 30.5145 26.7451Z" fill="white"/>
</g>
<defs>
<clipPath id="clip0_1_217">
<rect width="138" height="40" fill="white"/>
</clipPath>
</defs>
</svg>
