<svg width="560" height="397" viewBox="0 0 560 397" fill="none" xmlns="http://www.w3.org/2000/svg">
<path opacity="0.14" d="M386.68 1.97656C387.054 1.97656 387.45 1.98455 387.834 2C417.687 3.2047 446.963 10.5548 473.8 23.584C500.639 36.6132 524.452 55.0372 543.733 77.6855C562.396 99.512 576.43 124.851 584.988 152.187L584.993 152.207C595.025 184.232 597.338 218.147 591.744 251.221C586.152 284.293 572.807 315.601 552.79 342.622C532.773 369.643 506.639 391.624 476.494 406.791C446.351 421.958 413.038 429.887 379.24 429.941C373.188 429.941 367.041 429.685 360.972 429.171C332.736 426.851 305.238 419.022 280.061 406.128C254.883 393.236 232.518 375.537 214.253 354.046C211.865 351.276 210.052 348.063 208.919 344.597C207.786 341.127 207.355 337.47 207.651 333.838C207.948 330.203 208.966 326.665 210.646 323.423C212.325 320.178 214.635 317.299 217.44 314.944C220.247 312.592 223.494 310.81 226.996 309.708C230.498 308.603 234.185 308.198 237.845 308.512C241.505 308.828 245.069 309.859 248.325 311.544C251.584 313.232 254.474 315.54 256.829 318.337C287.244 354.044 331.82 374.523 379.124 374.523C416.879 374.516 453.416 361.254 482.267 337.087C549.63 280.584 558.107 180.236 501.164 113.394C486.841 96.6238 469.171 82.9796 449.271 73.3203C429.37 63.6608 407.67 58.1959 385.538 57.2695C378.25 56.9733 371.368 53.8544 366.373 48.582C361.376 43.3099 358.66 36.3042 358.811 29.0684C358.959 21.8325 361.961 14.9428 367.171 9.87793C372.381 4.8132 379.384 1.97633 386.68 1.97656ZM382.863 120.301C383.232 120.301 383.606 120.309 383.973 120.324C409.126 121.419 432.85 132.231 450.078 150.451C467.304 168.671 476.664 192.853 476.164 217.831C475.661 242.809 465.333 266.6 447.389 284.125C429.442 301.647 405.302 311.512 380.124 311.61C377.425 311.61 374.683 311.497 371.977 311.272C351.215 309.565 331.574 301.217 316.003 287.483C310.852 282.919 304.188 280.394 297.281 280.389H145.127C141.275 280.389 137.462 279.633 133.906 278.163C130.351 276.695 127.123 274.54 124.41 271.827C121.697 269.116 119.552 265.896 118.099 262.357C116.645 258.819 115.911 255.029 115.94 251.206C116.06 235.358 129.282 222.465 145.415 222.465H296.206C310.636 222.465 322.11 224.728 331.282 229.386C339.358 233.482 344.115 238.703 347.587 242.516L347.763 242.709C356.534 252.338 368.01 257.641 380.077 257.641C390.003 257.638 399.606 254.154 407.191 247.801C424.91 232.941 427.138 206.548 412.161 188.969C408.392 184.56 403.744 180.973 398.509 178.435C393.276 175.896 387.568 174.46 381.746 174.219C374.641 173.926 367.935 170.883 363.066 165.742C358.195 160.601 355.551 153.771 355.697 146.717C355.843 139.663 358.77 132.946 363.85 128.008C368.926 123.07 375.754 120.303 382.863 120.301ZM60.7793 112.861C68.5207 112.861 75.9449 115.913 81.4189 121.345C86.8929 126.776 89.9687 134.143 89.9688 141.824C89.9688 149.506 86.8931 156.873 81.4189 162.305C75.9449 167.736 68.5206 170.788 60.7793 170.788H17.1895C9.44807 170.788 2.02388 167.736 -3.4502 162.305C-8.92428 156.873 -12 149.506 -12 141.824C-12 134.143 -8.92424 126.776 -3.4502 121.345C2.02391 115.913 9.44795 112.861 17.1895 112.861H60.7793ZM305.712 112.861C313.453 112.861 320.877 115.912 326.353 121.344C331.825 126.775 334.901 134.143 334.901 141.824C334.901 149.506 331.825 156.873 326.353 162.305C320.877 167.736 313.453 170.788 305.712 170.788H147.959C140.217 170.788 132.792 167.736 127.318 162.305C121.844 156.873 118.77 149.506 118.77 141.824C118.77 134.143 121.844 126.775 127.318 121.344C132.792 115.912 140.217 112.861 147.959 112.861H305.712ZM292.559 0C300.3 0 307.724 3.05094 313.199 8.48242C318.672 13.9141 321.748 21.2815 321.748 28.9629C321.748 36.6446 318.672 44.0118 313.199 49.4434C307.724 54.8748 300.3 57.9258 292.559 57.9258H45.084C37.3425 57.9258 29.9175 54.875 24.4434 49.4434C18.9693 44.0118 15.8946 36.6445 15.8945 28.9629C15.8945 21.2815 18.9693 13.9141 24.4434 8.48242C29.9175 3.05076 37.3425 0 45.084 0H292.559Z" fill="black"/>
</svg>
