<svg width="207" height="60" viewBox="0 0 207 60" fill="none" xmlns="http://www.w3.org/2000/svg">
<g clip-path="url(#clip0_78_384)">
<path d="M102.601 14.8621V20.6552C101.755 20.5828 101.053 20.2931 100.521 19.7379C99.9647 19.2069 99.6986 18.5552 99.6986 17.7586C99.6986 16.9621 99.9647 16.3103 100.521 15.7552C101.053 15.2241 101.755 14.9345 102.601 14.8621ZM108.165 8.34483H102.601V10.0345C101.319 10.1069 100.182 10.3483 99.1423 10.7586C98.1021 11.1931 97.207 11.7483 96.4571 12.4483C95.7072 13.1483 95.1509 13.9448 94.7396 14.8379C94.3284 15.7552 94.1349 16.7207 94.1349 17.7586C94.1349 18.7966 94.3284 19.7621 94.7396 20.6552C95.1509 21.5724 95.7072 22.369 96.4571 23.069C97.207 23.769 98.1021 24.3241 99.1423 24.7345C100.182 25.169 101.319 25.4104 102.601 25.4828V27.1724H108.165V25.4828C109.447 25.4104 110.608 25.169 111.649 24.7345C112.689 24.3241 113.56 23.769 114.31 23.069C115.059 22.369 115.616 21.5724 116.027 20.6552C116.438 19.7621 116.632 18.7966 116.632 17.7586C116.632 16.7207 116.438 15.7552 116.027 14.8379C115.616 13.9448 115.059 13.1483 114.31 12.4483C113.56 11.7483 112.689 11.1931 111.649 10.7586C110.608 10.3483 109.447 10.1069 108.165 10.0345V8.34483ZM108.165 20.6552V14.8621C109.012 14.9345 109.713 15.2241 110.27 15.7552C110.802 16.3103 111.068 16.9621 111.068 17.7586C111.068 18.5552 110.802 19.2069 110.27 19.7379C109.713 20.2931 109.012 20.5828 108.165 20.6552ZM129.228 18.2414H129.446V26.2069H135.01V9.31035H129.204L124.608 17.2759H124.366V9.31035H118.802V26.2069H124.608L129.228 18.2414ZM137.901 9.31035V26.2069H143.465V20.4138H148.303V26.2069H153.867V9.31035H148.303V15.3448H143.465V9.31035H137.901ZM156.039 14.3793H160.877V26.2069H166.44V14.3793H171.278V9.31035H156.039V14.3793ZM187.968 21.3793H179.017V19.931H186.032V15.5862H179.017V14.1379H187.968V9.31035H173.454V26.2069H187.968V21.3793ZM195.465 9.31035H189.417L193.772 17.5172L188.692 26.2069H194.981L197.642 21.3793H197.884L200.545 26.2069H206.834L201.754 17.5172L206.109 9.31035H200.061L197.884 13.8966H197.642L195.465 9.31035Z" fill="#383838"/>
<path d="M103.691 40.931L106.473 52.7586H112.037L107.925 35.8621H97.7647L93.6523 52.7586H99.2161L101.998 40.931H103.691ZM124.151 44.7931H124.369V52.7586H129.932V35.8621H124.127L119.53 43.8276H119.289V35.8621H113.725V52.7586H119.53L124.151 44.7931ZM139.839 53.4828C141.048 53.4828 142.137 53.3138 143.105 53C144.048 52.6621 144.871 52.2276 145.524 51.6724C146.177 51.1414 146.685 50.5379 147.048 49.8621C147.41 49.1862 147.58 48.5103 147.58 47.8103C147.58 46.9414 147.41 46.2173 147.048 45.6379C146.685 45.0586 146.298 44.6 145.886 44.2621C145.378 43.8517 144.822 43.5621 144.193 43.3448V43.1035C144.75 42.9345 145.233 42.7172 145.645 42.4517C146.007 42.2345 146.346 41.9207 146.661 41.5345C146.951 41.1483 147.096 40.6655 147.096 40.0862C147.096 39.5069 146.927 38.9276 146.612 38.3241C146.298 37.7448 145.814 37.2138 145.209 36.731C144.58 36.2724 143.806 35.8862 142.911 35.5724C142.016 35.2828 140.976 35.1379 139.839 35.1379C138.799 35.1379 137.88 35.2828 137.033 35.5966C136.186 35.9104 135.46 36.3207 134.832 36.8517C134.178 37.3828 133.646 37.9862 133.235 38.6862C132.824 39.3862 132.509 40.1345 132.34 40.931L137.904 41.6552C138.146 41.1724 138.412 40.8104 138.726 40.569C139.016 40.3276 139.476 40.2069 140.081 40.2069C140.444 40.2069 140.758 40.3035 140.976 40.4966C141.194 40.6897 141.29 40.8828 141.29 41.0517C141.29 41.2207 141.194 41.4138 140.976 41.6069C140.758 41.8 140.444 41.8966 140.081 41.8966H138.146V46.2414H140.081C140.637 46.2414 141.048 46.3621 141.339 46.6035C141.629 46.8448 141.774 47.0862 141.774 47.3276C141.774 47.569 141.629 47.8104 141.339 48.0517C141.048 48.2931 140.637 48.4138 140.081 48.4138C139.234 48.4138 138.581 48.2448 138.17 47.9069C137.759 47.569 137.42 47.0862 137.178 46.4828L131.614 47.2069C131.856 48.1 132.219 48.9448 132.679 49.7172C133.138 50.4897 133.695 51.1414 134.372 51.6966C135.049 52.2517 135.848 52.6862 136.767 53.0241C137.662 53.3379 138.702 53.4828 139.839 53.4828ZM160.175 44.7931H160.393V52.7586H165.957V35.8621H160.151L155.555 43.8276H155.313V35.8621H149.749V52.7586H155.555L160.175 44.7931ZM168.848 35.8621V52.7586H174.412V46.9655H179.25V52.7586H184.814V35.8621H179.25V41.8966H174.412V35.8621H168.848ZM193.275 40.931H200.774V35.8621H187.711V52.7586H193.275V40.931Z" fill="#1CB4FF"/>
<path d="M83.3076 21.2373C82.1133 17.4227 80.1549 13.8866 77.5506 10.8408C74.86 7.6803 71.5369 5.10934 67.7916 3.29115C64.0466 1.47296 59.9611 0.447249 55.7952 0.279143C55.7417 0.276987 55.6864 0.275909 55.6342 0.275909C54.6161 0.275876 53.6388 0.671721 52.9117 1.3785C52.1847 2.08529 51.7658 3.0467 51.7451 4.05644C51.724 5.0662 52.1031 6.04382 52.8005 6.77955C53.4975 7.5153 54.4579 7.95051 55.4749 7.99186C58.5633 8.12113 61.5916 8.88375 64.3686 10.2317C67.1457 11.5796 69.6114 13.4837 71.6102 15.8239C79.5563 25.1515 78.3734 39.1548 68.9731 47.0396C64.9471 50.4121 59.8485 52.2628 54.5798 52.2638C47.9786 52.2638 41.7583 49.4059 37.5139 44.4231C37.1853 44.0328 36.782 43.7107 36.3272 43.4752C35.8728 43.24 35.3755 43.0962 34.8647 43.0521C34.354 43.0083 33.8395 43.0648 33.3508 43.219C32.8622 43.3728 32.409 43.6214 32.0174 43.9496C31.6258 44.2783 31.3035 44.68 31.0691 45.1328C30.8347 45.5852 30.6927 46.079 30.6513 46.5862C30.61 47.0931 30.6701 47.6034 30.8282 48.0876C30.9863 48.5714 31.2393 49.0196 31.5726 49.4062C34.1214 52.4052 37.2423 54.8752 40.7558 56.6741C44.2692 58.4734 48.1065 59.5659 52.0468 59.8896C52.8938 59.9614 53.7515 59.9972 54.5961 59.9972C59.3125 59.9897 63.9612 58.8831 68.1675 56.7665C72.3742 54.65 76.0211 51.5828 78.8144 47.8121C81.6077 44.0414 83.47 39.6724 84.2503 35.0572C85.031 30.4418 84.7082 25.7091 83.3083 21.2401L83.3076 21.2373Z" fill="#D9D9D9"/>
<path opacity="0.67" d="M7.96588 8.08348H42.5003C43.5805 8.08348 44.6166 7.65766 45.3806 6.89969C46.1444 6.14172 46.5736 5.11369 46.5736 4.04172C46.5736 2.9698 46.1444 1.94177 45.3806 1.1838C44.6166 0.425824 43.5805 0 42.5003 0H7.96588C6.88558 0 5.84951 0.425824 5.08561 1.1838C4.32171 1.94177 3.89258 2.9698 3.89258 4.04172C3.89258 5.11369 4.32171 6.14172 5.08561 6.89969C5.84951 7.65766 6.88558 8.08348 7.96588 8.08348Z" fill="url(#paint0_linear_78_384)"/>
<path opacity="0.6" d="M22.3213 15.7495C21.241 15.7495 20.205 16.1753 19.4411 16.9333C18.6772 17.6912 18.248 18.7193 18.248 19.7912C18.248 20.8632 18.6772 21.8912 19.4411 22.6492C20.205 23.4071 21.241 23.833 22.3213 23.833H44.3353C45.4156 23.833 46.4516 23.4071 47.2157 22.6492C47.9794 21.8912 48.4086 20.8632 48.4086 19.7912C48.4086 18.7193 47.9794 17.6912 47.2157 16.9333C46.4516 16.1753 45.4156 15.7495 44.3353 15.7495H22.3213Z" fill="url(#paint1_linear_78_384)"/>
<path opacity="0.38" d="M10.1561 15.7495H4.0733C2.993 15.7495 1.95694 16.1753 1.19304 16.9333C0.42915 17.6912 0 18.7193 0 19.7912C0 20.8632 0.42915 21.8912 1.19304 22.6492C1.95694 23.4071 2.993 23.833 4.0733 23.833H10.1561C11.2364 23.833 12.2725 23.4071 13.0364 22.6492C13.8003 21.8912 14.2294 20.8632 14.2294 19.7912C14.2294 18.7193 13.8003 17.6912 13.0364 16.9333C12.2725 16.1753 11.2364 15.7495 10.1561 15.7495Z" fill="url(#paint2_linear_78_384)"/>
<path opacity="0.87" d="M45.7717 40.1176C47.9447 42.0341 50.6855 43.199 53.5828 43.4372C53.9605 43.4686 54.3431 43.4845 54.7197 43.4845C58.2332 43.4707 61.6019 42.0941 64.1063 39.649C66.6103 37.2034 68.0517 33.8834 68.1219 30.3978C68.1917 26.9122 66.8854 23.5377 64.4816 20.9952C62.0774 18.4526 58.7668 16.9438 55.2568 16.791C55.2056 16.7888 55.1534 16.7878 55.102 16.7878C54.1098 16.7881 53.1571 17.1742 52.4486 17.8633C51.7398 18.5524 51.3314 19.4896 51.311 20.474C51.2906 21.4583 51.6597 22.4115 52.3394 23.1289C53.0188 23.8464 53.9546 24.2711 54.9461 24.3119C55.7585 24.3456 56.5551 24.5459 57.2853 24.9001C58.0159 25.2543 58.6645 25.7549 59.1905 26.3701C61.2805 28.8232 60.9695 32.5063 58.4969 34.58C57.4384 35.4665 56.0982 35.9527 54.7132 35.9531C53.0292 35.9531 51.4278 35.2131 50.2038 33.8694L50.1792 33.8424C49.6947 33.3104 49.0309 32.5818 47.904 32.0102C46.6239 31.3603 45.0229 31.0445 43.0092 31.0445H21.9667C19.7154 31.0445 17.8703 32.8437 17.8536 35.0552C17.8496 35.5886 17.9519 36.1176 18.1548 36.6114C18.3576 37.1052 18.657 37.5545 19.0356 37.9327C19.4142 38.3114 19.8646 38.6121 20.3608 38.8169C20.8569 39.0221 21.3891 39.1276 21.9266 39.1276H43.1592C44.123 39.1283 45.0529 39.4807 45.7717 40.1176Z" fill="url(#paint3_linear_78_384)"/>
</g>
<defs>
<linearGradient id="paint0_linear_78_384" x1="25.2331" y1="0" x2="25.2331" y2="8.08348" gradientUnits="userSpaceOnUse">
<stop stop-color="#1CB4FF"/>
<stop offset="1" stop-color="#1CB4FF"/>
</linearGradient>
<linearGradient id="paint1_linear_78_384" x1="33.3283" y1="15.7495" x2="33.3283" y2="23.833" gradientUnits="userSpaceOnUse">
<stop stop-color="#1CB4FF"/>
<stop offset="1" stop-color="#1CB4FF"/>
</linearGradient>
<linearGradient id="paint2_linear_78_384" x1="7.11472" y1="15.7495" x2="7.11472" y2="23.833" gradientUnits="userSpaceOnUse">
<stop stop-color="#1CB4FF"/>
<stop offset="1" stop-color="#1CB4FF"/>
</linearGradient>
<linearGradient id="paint3_linear_78_384" x1="42.9888" y1="16.7878" x2="42.9888" y2="43.4845" gradientUnits="userSpaceOnUse">
<stop stop-color="#1CB4FF"/>
<stop offset="1" stop-color="#1CB4FF"/>
</linearGradient>
<clipPath id="clip0_78_384">
<rect width="207" height="60" fill="white"/>
</clipPath>
</defs>
</svg>
