<svg width="238" height="130" viewBox="0 0 238 130" fill="none" xmlns="http://www.w3.org/2000/svg">
<path d="M92.1564 91.264V74.88L121.852 50.304C125.692 47.1467 128.807 44.3733 131.196 41.984C133.671 39.5093 135.42 37.248 136.444 35.2C137.554 33.0667 138.108 30.848 138.108 28.544C138.108 25.5573 137.298 23.2533 135.676 21.632C134.055 20.0107 131.708 19.2 128.636 19.2C124.626 19.2 121.596 20.48 119.548 23.04C117.5 25.6 116.476 29.3547 116.476 34.304H93.4364C93.4364 26.9653 94.7164 20.7787 97.2764 15.744C99.9217 10.624 103.847 6.74134 109.052 4.096C114.258 1.36533 120.786 0 128.636 0C135.975 0 142.034 1.23734 146.812 3.71201C151.676 6.10134 155.303 9.42934 157.692 13.696C160.082 17.9627 161.276 22.912 161.276 28.544C161.276 32.64 160.338 36.5227 158.46 40.192C156.583 43.8613 154.023 47.36 150.78 50.688C147.623 54.016 143.954 57.3013 139.772 60.544L124.284 72.32H162.556V91.264H92.1564Z" fill="#383838"/>
<path d="M59.4747 112.384L64.5947 91.264V72.064H85.2027V91.264L69.4587 112.384H59.4747Z" fill="#383838"/>
<path d="M0 91.2638V72.3198H19.712V24.8318L0 38.9118V15.8718L19.84 1.66382H42.88V72.3198H58.88V91.2638H0Z" fill="#383838"/>
<path d="M195.34 77.8239V54.6559H172.556V35.7119H195.34V12.5439H215.052V35.7119H237.836V54.6559H215.052V77.8239H195.34Z" fill="#1CB4FF"/>
</svg>
