<svg width="279" height="130" viewBox="0 0 279 130" fill="none" xmlns="http://www.w3.org/2000/svg">
<path d="M167.68 92.928C162.645 92.928 157.952 92.1173 153.6 90.496C149.248 88.7893 145.451 86.1013 142.208 82.432C138.965 78.7627 136.405 73.984 134.528 68.096C132.736 62.1227 131.84 54.912 131.84 46.464V43.904C131.84 36.0533 132.736 29.3547 134.528 23.808C136.405 18.2613 138.965 13.7387 142.208 10.24C145.451 6.74134 149.248 4.18134 153.6 2.56001C157.952 0.853335 162.645 0 167.68 0C172.715 0 177.408 0.853335 181.76 2.56001C186.112 4.18134 189.909 6.74134 193.152 10.24C196.395 13.7387 198.912 18.2613 200.704 23.808C202.581 29.3547 203.52 36.0533 203.52 43.904V46.464C203.52 54.912 202.581 62.1227 200.704 68.096C198.912 73.984 196.395 78.7627 193.152 82.432C189.909 86.1013 186.112 88.7893 181.76 90.496C177.408 92.1173 172.715 92.928 167.68 92.928ZM167.68 73.984C169.387 73.984 171.008 73.5573 172.544 72.704C174.08 71.8507 175.403 70.4 176.512 68.352C177.707 66.2187 178.645 63.4027 179.328 59.904C180.011 56.32 180.352 51.84 180.352 46.464V43.904C180.352 37.5893 179.797 32.64 178.688 29.056C177.579 25.3867 176.043 22.784 174.08 21.248C172.117 19.712 169.984 18.944 167.68 18.944C165.376 18.944 163.243 19.712 161.28 21.248C159.403 22.784 157.867 25.3867 156.672 29.056C155.477 32.64 154.88 37.5893 154.88 43.904V46.464C154.88 51.84 155.221 56.32 155.904 59.904C156.587 63.4027 157.525 66.2187 158.72 68.352C160 70.4 161.365 71.8507 162.816 72.704C164.352 73.5573 165.973 73.984 167.68 73.984Z" fill="#383838"/>
<path d="M93.3954 92.9278C87.2514 92.9278 82.0887 92.1598 77.9074 90.6238C73.726 89.0878 70.3127 86.9545 67.6674 84.2238C65.1074 81.4078 63.23 78.2932 62.0354 74.8798C60.8407 71.3812 60.2007 67.6692 60.1154 63.7438H82.3874C82.558 67.1572 83.6247 69.8878 85.5874 71.9358C87.55 73.9838 90.1527 75.0078 93.3954 75.0078C97.406 75.0078 100.265 73.7705 101.971 71.2958C103.678 68.8212 104.531 65.2798 104.531 60.6718C104.531 57.4292 104.062 54.8692 103.123 52.9918C102.185 51.0292 100.862 49.6638 99.1554 48.8958C97.534 48.0425 95.614 47.6158 93.3954 47.6158C91.1767 47.6158 89.1714 48.0852 87.3794 49.0238C85.5874 49.8772 84.094 51.1572 82.8994 52.8638H62.0354V1.66382H122.963V20.4798H84.1794V33.0238C85.9714 31.6585 88.062 30.6772 90.4514 30.0798C92.926 29.3972 95.742 29.0558 98.8994 29.0558C104.702 29.0558 109.737 30.2505 114.003 32.6398C118.355 34.9438 121.769 38.4425 124.243 43.1358C126.718 47.7438 127.955 53.5038 127.955 60.4158C127.955 66.9865 126.547 72.7465 123.731 77.6958C120.915 82.5598 116.905 86.3145 111.699 88.9598C106.579 91.6052 100.478 92.9278 93.3954 92.9278Z" fill="#383838"/>
<path d="M0 91.2638V72.3198H19.712V24.8318L0 38.9118V15.8718L19.84 1.66382H42.88V72.3198H58.88V91.2638H0Z" fill="#383838"/>
<path d="M236.304 77.8239V54.6559H213.52V35.7119H236.304V12.5439H256.016V35.7119H278.8V54.6559H256.016V77.8239H236.304Z" fill="#1CB4FF"/>
</svg>
