<svg width="145" height="130" viewBox="0 0 145 130" fill="none" xmlns="http://www.w3.org/2000/svg">
<path d="M110.125 92.928C98.2632 92.928 89.2179 89.5573 82.9885 82.816C76.7592 75.9893 73.6445 64.9387 73.6445 49.664V47.104C73.6445 35.84 75.2232 26.752 78.3805 19.84C81.5379 12.928 85.9325 7.89333 91.5645 4.736C97.2819 1.57867 103.895 0 111.405 0C117.378 0 122.541 0.810669 126.893 2.43201C131.245 3.968 134.743 6.48533 137.389 9.984C140.034 13.4827 141.613 18.176 142.125 24.064H120.365C119.767 22.016 118.658 20.48 117.037 19.456C115.501 18.432 113.41 17.92 110.765 17.92C107.863 17.92 105.303 18.6027 103.085 19.968C100.866 21.3333 99.1165 23.6373 97.8365 26.88C96.5565 30.1227 95.8312 34.7307 95.6605 40.704C97.7085 37.7173 100.567 35.6267 104.237 34.432C107.906 33.2373 111.831 32.64 116.013 32.64C121.986 32.64 127.063 33.792 131.245 36.096C135.426 38.4 138.583 41.6427 140.717 45.824C142.935 50.0053 144.045 54.912 144.045 60.544V61.952C144.045 68.1813 142.637 73.6427 139.821 78.336C137.09 83.0293 133.165 86.656 128.045 89.216C122.925 91.6907 116.951 92.928 110.125 92.928ZM108.845 75.008C112.599 75.008 115.543 73.9413 117.677 71.808C119.81 69.5893 120.877 66.56 120.877 62.72V61.44C120.877 57.6853 119.81 54.7413 117.677 52.608C115.543 50.3893 112.599 49.28 108.845 49.28C105.09 49.28 102.103 50.3893 99.8845 52.608C97.7512 54.7413 96.6845 57.6853 96.6845 61.44V62.72C96.6845 66.56 97.7512 69.5893 99.8845 71.808C102.103 73.9413 105.09 75.008 108.845 75.008Z" fill="#383838"/>
<path d="M34.5601 92.928C26.9655 92.928 20.5655 91.5627 15.3601 88.832C10.2401 86.1013 6.40012 82.3467 3.84012 77.568C1.28012 72.7893 0.00012207 67.328 0.00012207 61.184H23.0401C23.0401 65.3653 23.9788 68.5227 25.8561 70.656C27.8188 72.704 30.9761 73.728 35.3281 73.728C38.9121 73.728 41.5575 72.832 43.2641 71.04C45.0561 69.1627 45.9521 66.688 45.9521 63.616C45.9521 60.3733 45.0561 57.8987 43.2641 56.192C41.4721 54.4853 38.5708 53.632 34.5601 53.632H27.0081V36.736H34.5601C37.9735 36.736 40.4908 35.968 42.1121 34.432C43.8188 32.896 44.6721 30.6347 44.6721 27.648C44.6721 25.0027 43.8615 22.9547 42.2401 21.504C40.6188 19.968 38.3148 19.2 35.3281 19.2C31.5735 19.2 28.8001 20.1387 27.0081 22.016C25.2161 23.8933 24.3201 26.7093 24.3201 30.464H1.28012C1.28012 24.064 2.56012 18.6027 5.12012 14.08C7.68012 9.55734 11.4348 6.10134 16.3841 3.71201C21.4188 1.23734 27.4775 0 34.5601 0C41.6428 0 47.6588 1.06667 52.6081 3.2C57.5575 5.248 61.3121 8.14934 63.8721 11.904C66.5175 15.6587 67.8401 19.968 67.8401 24.832C67.8401 29.696 66.4748 33.8347 63.7441 37.248C61.0135 40.6613 57.3441 43.0933 52.7361 44.544C58.1121 45.9947 62.1655 48.4693 64.8961 51.968C67.7121 55.4667 69.1201 60.032 69.1201 65.664C69.1201 71.04 67.7121 75.8187 64.8961 80C62.0801 84.096 58.0695 87.296 52.8641 89.6C47.7441 91.8187 41.6428 92.928 34.5601 92.928Z" fill="#383838"/>
</svg>
