<svg width="295" height="130" viewBox="0 0 295 130" fill="none" xmlns="http://www.w3.org/2000/svg">
<path d="M183.68 92.928C178.645 92.928 173.952 92.1173 169.6 90.496C165.248 88.7893 161.451 86.1013 158.208 82.432C154.965 78.7627 152.405 73.984 150.528 68.096C148.736 62.1227 147.84 54.912 147.84 46.464V43.904C147.84 36.0533 148.736 29.3547 150.528 23.808C152.405 18.2613 154.965 13.7387 158.208 10.24C161.451 6.74134 165.248 4.18134 169.6 2.56001C173.952 0.853335 178.645 0 183.68 0C188.715 0 193.408 0.853335 197.76 2.56001C202.112 4.18134 205.909 6.74134 209.152 10.24C212.395 13.7387 214.912 18.2613 216.704 23.808C218.581 29.3547 219.52 36.0533 219.52 43.904V46.464C219.52 54.912 218.581 62.1227 216.704 68.096C214.912 73.984 212.395 78.7627 209.152 82.432C205.909 86.1013 202.112 88.7893 197.76 90.496C193.408 92.1173 188.715 92.928 183.68 92.928ZM183.68 73.984C185.387 73.984 187.008 73.5573 188.544 72.704C190.08 71.8507 191.403 70.4 192.512 68.352C193.707 66.2187 194.645 63.4027 195.328 59.904C196.011 56.32 196.352 51.84 196.352 46.464V43.904C196.352 37.5893 195.797 32.64 194.688 29.056C193.579 25.3867 192.043 22.784 190.08 21.248C188.117 19.712 185.984 18.944 183.68 18.944C181.376 18.944 179.243 19.712 177.28 21.248C175.403 22.784 173.867 25.3867 172.672 29.056C171.477 32.64 170.88 37.5893 170.88 43.904V46.464C170.88 51.84 171.221 56.32 171.904 59.904C172.587 63.4027 173.525 66.2187 174.72 68.352C176 70.4 177.365 71.8507 178.816 72.704C180.352 73.5573 181.973 73.984 183.68 73.984Z" fill="#383838"/>
<path d="M109.395 92.9278C103.251 92.9278 98.0887 92.1598 93.9074 90.6238C89.726 89.0878 86.3127 86.9545 83.6674 84.2238C81.1074 81.4078 79.23 78.2932 78.0354 74.8798C76.8407 71.3812 76.2007 67.6692 76.1154 63.7438H98.3874C98.558 67.1572 99.6247 69.8878 101.587 71.9358C103.55 73.9838 106.153 75.0078 109.395 75.0078C113.406 75.0078 116.265 73.7705 117.971 71.2958C119.678 68.8212 120.531 65.2798 120.531 60.6718C120.531 57.4292 120.062 54.8692 119.123 52.9918C118.185 51.0292 116.862 49.6638 115.155 48.8958C113.534 48.0425 111.614 47.6158 109.395 47.6158C107.177 47.6158 105.171 48.0852 103.379 49.0238C101.587 49.8772 100.094 51.1572 98.8994 52.8638H78.0354V1.66382H138.963V20.4798H100.179V33.0238C101.971 31.6585 104.062 30.6772 106.451 30.0798C108.926 29.3972 111.742 29.0558 114.899 29.0558C120.702 29.0558 125.737 30.2505 130.003 32.6398C134.355 34.9438 137.769 38.4425 140.243 43.1358C142.718 47.7438 143.955 53.5038 143.955 60.4158C143.955 66.9865 142.547 72.7465 139.731 77.6958C136.915 82.5598 132.905 86.3145 127.699 88.9598C122.579 91.6052 116.478 92.9278 109.395 92.9278Z" fill="#383838"/>
<path d="M35.84 92.928C28.5013 92.928 22.144 91.8613 16.768 89.728C11.392 87.5093 7.25333 84.4373 4.352 80.512C1.45067 76.5013 0 71.7653 0 66.304C0 61.3547 1.49333 56.9173 4.48 52.992C7.46667 49.0667 11.904 46.336 17.792 44.8C13.3547 43.264 9.68533 40.7893 6.784 37.376C3.968 33.9627 2.56 29.7813 2.56 24.832C2.56 19.8827 3.84 15.5733 6.4 11.904C9.04533 8.14934 12.8427 5.248 17.792 3.2C22.8267 1.06667 28.8427 0 35.84 0C42.9227 0 48.9387 1.06667 53.888 3.2C58.8373 5.248 62.592 8.14934 65.152 11.904C67.7973 15.5733 69.12 19.8827 69.12 24.832C69.12 29.696 67.712 33.8347 64.896 37.248C62.08 40.6613 58.4107 43.1787 53.888 44.8C59.776 46.5067 64.2133 49.1947 67.2 52.864C70.1867 56.5333 71.68 61.0133 71.68 66.304C71.68 71.7653 70.2293 76.5013 67.328 80.512C64.4267 84.4373 60.288 87.5093 54.912 89.728C49.536 91.8613 43.1787 92.928 35.84 92.928ZM35.84 75.264C38.912 75.264 41.472 74.88 43.52 74.112C45.6533 73.2587 47.232 72.064 48.256 70.528C49.3653 68.9067 49.92 67.0293 49.92 64.896C49.92 61.312 48.512 58.5813 45.696 56.704C42.9653 54.7413 39.68 53.4187 35.84 52.736C32.0853 53.4187 28.8 54.7413 25.984 56.704C23.168 58.6667 21.76 61.3973 21.76 64.896C21.76 67.0293 22.3147 68.9067 23.424 70.528C24.6187 72.064 26.24 73.2587 28.288 74.112C30.4213 74.88 32.9387 75.264 35.84 75.264ZM35.84 37.632C39.0827 37.0347 41.8133 35.968 44.032 34.432C46.2507 32.8107 47.36 30.336 47.36 27.008C47.36 23.936 46.336 21.632 44.288 20.096C42.24 18.4747 39.424 17.664 35.84 17.664C32.256 17.664 29.44 18.432 27.392 19.968C25.344 21.504 24.32 23.8507 24.32 27.008C24.32 30.336 25.472 32.768 27.776 34.304C30.08 35.84 32.768 36.9493 35.84 37.632Z" fill="#383838"/>
<path d="M252.304 77.8239V54.6559H229.52V35.7119H252.304V12.5439H272.016V35.7119H294.8V54.6559H272.016V77.8239H252.304Z" fill="#1CB4FF"/>
</svg>
